#!OML:ASF X:\2005_08_12_Meinard\c3d\meinard.ASF
:FULLY-SPECIFIED
:DEGREES
602
root -1.54978 17.2084 -5.34642 -16.4188 -70.5919 7.55323
lowerback 38.17 -3.63285 -2.6904
upperback 6.57633 -6.82887 -3.47942
thorax -11.5454 -3.3144 0.596617
lowerneck -3.87486 -15.389 -1.34986
upperneck -18.6849 -19.5121 19.4096
head -2.79217 -10.9973 6.06702
rclavicle 3.81667e-014 -9.54166e-015
rhumerus 26.9904 35.0705 40.8334
rradius 32.2001
rwrist -81.9761
rhand -55.7004 -10.5698
rfingers 7.12502
rthumb -28.0498 -38.493
lclavicle 3.81667e-014 -9.54166e-015
lhumerus 55.6135 117.323 125.763
lradius 8.20515
lwrist -113.759
lhand -23.5166 -12.7695
lfingers 7.12502
lthumb 2.94423 17.19
rfemur -5.37085 -6.75217 20.049
rtibia 37.3581
rfoot -15.8459 7.12725
rtoes -1.05325
lfemur 15.0567 -7.98123 -7.70115
ltibia 20.5554
lfoot -1.32396 27.8681
ltoes -31.3631
603
root -1.54616 17.2154 -5.35233 -16.5448 -70.5859 7.67476
lowerback 38.1946 -3.62955 -2.63755
upperback 6.60127 -6.80836 -3.49706
thorax -11.5337 -3.30806 0.542325
lowerneck -3.74124 -15.3791 -1.48075
upperneck -18.5794 -19.4877 19.4997
head -2.75852 -10.9788 6.11228
rclavicle 1.98785e-015 1.74931e-014
rhumerus 27.1022 34.9489 41.1153
rradius 32.1095
rwrist -82.6349
rhand -55.7408 -13.6284
rfingers 7.12502
rthumb -28.0885 -41.5453
lclavicle 1.98785e-015 1.74931e-014
lhumerus 64.3214 115.389 135.009
lradius 8.19382
lwrist -108.747
lhand -23.0042 -12.7062
lfingers 7.12502
lthumb 3.43904 17.2458
rfemur -5.27411 -5.50587 19.9138
rtibia 37.217
rfoot -15.5725 8.37177
rtoes -1.79367
lfemur 15.0895 -8.04956 -7.67764
ltibia 20.4158
lfoot -0.801008 27.5719
ltoes -31.4718
604
root -1.54211 17.2214 -5.35739 -16.7325 -70.5525 7.84655
lowerback 38.2266 -3.62743 -2.57935
upperback 6.62606 -6.78971 -3.52968
thorax -11.5275 -3.30249 0.470535
lowerneck -3.63739 -15.3666 -1.59322
upperneck -18.4067 -19.4673 19.5588
head -2.70527 -10.956 6.13909
rclavicle 2.94201e-014 7.95139e-015
rhumerus 27.2123 34.894 41.4131
rradius 31.8675
rwrist -82.921
rhand -54.575 -16.3502
rfingers 7.12502
rthumb -26.9736 -44.4447
lclavicle 2.94201e-014 7.95139e-015
lhumerus 74.1722 114.028 145.435
lradius 8.25389
lwrist -103.702
lhand -22.4459 -12.5739
lfingers 7.12502
lthumb 3.97823 17.3687
rfemur -5.15143 -4.31869 19.753
rtibia 37.0659
rfoot -15.3966 9.56082
rtoes -2.44985
lfemur 15.1127 -8.12574 -7.67283
ltibia 20.3021
lfoot -0.226199 27.1969
ltoes -31.5565
605
root -1.53856 17.2262 -5.36271 -16.7768 -70.4988 7.8829
lowerback 38.2112 -3.6417 -2.49266
upperback 6.68255 -6.77426 -3.53955
thorax -11.4682 -3.30179 0.4056
lowerneck -3.7045 -15.3514 -1.6511
upperneck -18.1469 -19.464 19.5388
head -2.61241 -10.93 6.11503
rclavicle 5.68524e-014 -1.43125e-014
rhumerus 27.4126 34.9508 41.872
rradius 31.4983
rwrist -83.1376
rhand -52.4646 -17.9035
rfingers 7.12502
rthumb -24.9528 -46.2943
lclavicle 5.68524e-014 -1.43125e-014
lhumerus 84.7113 113.344 156.601
lradius 8.3319
lwrist -98.6477
lhand -21.9903 -12.4037
lfingers 7.12502
lthumb 4.41814 17.5302
rfemur -5.03887 -3.15761 19.6742
rtibia 36.9108
rfoot -15.2709 10.565
rtoes -2.91556
lfemur 15.1027 -8.1935 -7.60173
ltibia 20.2061
lfoot 0.402215 26.7122
ltoes -31.811
606
root -1.53561 17.2306 -5.36751 -16.9531 -70.4138 8.05313
lowerback 38.1801 -3.64673 -2.43784
upperback 6.74259 -6.76179 -3.56718
thorax -11.3984 -3.30197 0.338353
lowerneck -3.71399 -15.3223 -1.65928
upperneck -17.9392 -19.4364 19.4996
head -2.5547 -10.8989 6.09059
rclavicle 2.3059e-014 -2.38542e-015
rhumerus 27.6152 35.0775 42.3608
rradius 31.1022
rwrist -83.2752
rhand -49.7983 -18.1924
rfingers 7.12502
rthumb -22.3955 -46.9141
lclavicle 2.3059e-014 -2.38542e-015
lhumerus 95.5341 113.507 168.09
lradius 8.41788
lwrist -93.6672
lhand -21.7274 -12.1883
lfingers 7.12502
lthumb 4.67202 17.7402
rfemur -4.93865 -2.05477 19.5654
rtibia 36.765
rfoot -15.174 11.3454
rtoes -3.08269
lfemur 15.0678 -8.29951 -7.60127
ltibia 20.1816
lfoot 1.00434 26.1786
ltoes -32.161
607
root -1.53274 17.2348 -5.37322 -17.0872 -70.2891 8.17062
lowerback 38.1789 -3.67609 -2.38319
upperback 6.7805 -6.7802 -3.59272
thorax -11.364 -3.31388 0.288965
lowerneck -3.69052 -15.2726 -1.56743
upperneck -17.7441 -19.3855 19.3577
head -2.53165 -10.8577 6.03189
rclavicle -2.78299e-015 2.06736e-014
rhumerus 27.9001 35.3499 42.9846
rradius 30.7684
rwrist -83.4261
rhand -46.9408 -17.3482
rfingers 7.12502
rthumb -19.6503 -46.3751
lclavicle -2.78299e-015 2.06736e-014
lhumerus 105.766 114.522 178.99
lradius 8.47013
lwrist -88.6461
lhand -21.6154 -12.0135
lfingers 7.12502
lthumb 4.78014 17.9126
rfemur -4.8443 -1.09759 19.4898
rtibia 36.6121
rfoot -15.0516 11.9767
rtoes -2.93405
lfemur 14.9975 -8.37499 -7.56223
ltibia 20.1968
lfoot 1.66705 25.5088
ltoes -32.5989
608
root -1.52926 17.2341 -5.37771 -17.229 -70.1632 8.30962
lowerback 38.151 -3.69523 -2.34121
upperback 6.82005 -6.78688 -3.60159
thorax -11.3148 -3.32054 0.25737
lowerneck -3.70173 -15.2175 -1.49599
upperneck -17.5244 -19.3312 19.1936
head -2.49622 -10.8097 5.96485
rclavicle 4.33351e-014 3.18055e-015
rhumerus 28.1962 35.7053 43.7286
rradius 30.5564
rwrist -83.7117
rhand -44.3806 -15.6773
rfingers 7.12502
rthumb -17.1876 -44.9372
lclavicle 4.33351e-014 3.18055e-015
lhumerus 114.89 116.228 188.857
lradius 8.50868
lwrist -83.7198
lhand -21.7267 -11.9045
lfingers 7.12502
lthumb 4.6727 18.024
rfemur -4.76759 -0.245153 19.4139
rtibia 36.4573
rfoot -14.9559 12.4896
rtoes -2.64642
lfemur 14.8865 -8.45093 -7.52508
ltibia 20.2773
lfoot 2.20993 24.826
ltoes -32.944
609
root -1.52692 17.237 -5.38285 -17.3613 -70.0099 8.42685
lowerback 38.1399 -3.73202 -2.29058
upperback 6.85458 -6.81528 -3.62727
thorax -11.2805 -3.33654 0.213693
lowerneck -3.73784 -15.1376 -1.32899
upperneck -17.3024 -19.2481 18.9863
head -2.47404 -10.75 5.874
rclavicle -4.77083e-014 2.54444e-014
rhumerus 28.5859 36.2757 44.6566
rradius 30.5549
rwrist -84.3398
rhand -42.4835 -13.5952
rfingers 7.12502
rthumb -15.3609 -43.0046
lclavicle -4.77083e-014 2.54444e-014
lhumerus 122.647 118.574 197.345
lradius 8.55974
lwrist -78.8425
lhand -21.9461 -11.7735
lfingers 7.12502
lthumb 4.46084 18.1596
rfemur -4.63598 0.376204 19.3371
rtibia 36.2823
rfoot -14.8897 12.9729
rtoes -2.32207
lfemur 14.7467 -8.53886 -7.48016
ltibia 20.4258
lfoot 2.65825 24.1023
ltoes -33.2132
610
root -1.52295 17.2364 -5.38733 -17.4852 -69.8519 8.53468
lowerback 38.14 -3.76543 -2.24428
upperback 6.88101 -6.83898 -3.63602
thorax -11.2566 -3.34955 0.189211
lowerneck -3.7833 -15.0674 -1.15637
upperneck -17.0701 -19.1821 18.7331
head -2.45128 -10.6953 5.7676
rclavicle -1.34776e-013 -2.8625e-014
rhumerus 28.9683 36.9091 45.658
rradius 30.7236
rwrist -85.0285
rhand -41.403 -11.4557
rfingers 7.12502
rthumb -14.32 -40.9419
lclavicle -1.34776e-013 -2.8625e-014
lhumerus 128.978 121.42 204.489
lradius 8.66927
lwrist -73.993
lhand -22.244 -11.7538
lfingers 7.12502
lthumb 4.17316 18.185
rfemur -4.49183 0.798424 19.2587
rtibia 36.0956
rfoot -14.8763 13.4124
rtoes -2.1563
lfemur 14.5676 -8.64212 -7.4444
ltibia 20.6587
lfoot 3.00164 23.3853
ltoes -33.47
611
root -1.51811 17.2354 -5.39008 -17.5663 -69.7101 8.60656
lowerback 38.1298 -3.80731 -2.1635
upperback 6.91602 -6.86219 -3.66363
thorax -11.2256 -3.36381 0.125952
lowerneck -3.90385 -14.9792 -0.899634
upperneck -16.8088 -19.1014 18.4338
head -2.42291 -10.6321 5.63087
rclavicle -1.07344e-014 3.73715e-014
rhumerus 29.3354 37.4303 46.4626
rradius 30.8172
rwrist -85.5595
rhand -41.1622 -9.49884
rfingers 7.12502
rthumb -14.0879 -39.0013
lclavicle -1.07344e-014 3.73715e-014
lhumerus 134.22 124.581 210.53
lradius 8.84068
lwrist -69.1859
lhand -22.4948 -11.8174
lfingers 7.12502
lthumb 3.93096 18.1261
rfemur -4.35314 1.10303 19.196
rtibia 35.8895
rfoot -14.8641 13.7694
rtoes -1.82456
lfemur 14.3729 -8.72591 -7.39388
ltibia 20.914
lfoot 3.2368 22.6977
ltoes -33.6352
612
root -1.51172 17.2317 -5.39124 -17.6702 -69.5584 8.7175
lowerback 38.1191 -3.84423 -2.10579
upperback 6.9303 -6.88551 -3.67638
thorax -11.2136 -3.37604 0.091279
lowerneck -3.97645 -14.882 -0.627176
upperneck -16.5672 -19.0062 18.1028
head -2.41402 -10.5634 5.49003
rclavicle 3.06128e-014 1.82882e-014
rhumerus 29.5734 37.6975 46.9465
rradius 30.8819
rwrist -85.6302
rhand -41.7777 -8.08364
rfingers 7.12502
rthumb -14.681 -37.5439
lclavicle 3.06128e-014 1.82882e-014
lhumerus 138.384 128.027 215.605
lradius 9.16847
lwrist -64.4628
lhand -22.6735 -11.8225
lfingers 7.12502
lthumb 3.75838 18.1241
rfemur -4.24352 1.25879 19.1131
rtibia 35.6968
rfoot -14.8953 14.0496
rtoes -1.55281
lfemur 14.1407 -8.80013 -7.36153
ltibia 21.203
lfoot 3.36081 22.0812
ltoes -33.5716
